M48
; DRILL file {KiCad (6.0.1)} date Wed Jan 19 18:18:24 2022
; FORMAT={-:-/ absolute / metric / decimal}
; #@! TF.CreationDate,2022-01-19T18:18:24+01:00
; #@! TF.GenerationSoftware,Kicad,Pcbnew,(6.0.1)
; #@! TF.FileFunction,Plated,1,2,PTH
FMAT,2
METRIC
; #@! TA.AperFunction,Plated,PTH,ComponentDrill
T1C0.800
; #@! TA.AperFunction,Plated,PTH,ComponentDrill
T2C1.000
; #@! TA.AperFunction,Plated,PTH,ComponentDrill
T3C1.100
; #@! TA.AperFunction,Plated,PTH,ComponentDrill
T4C1.500
%
G90
G05
T1
X6.985Y-9.525
X6.985Y-17.145
X6.985Y-28.575
X6.985Y-36.195
X9.366Y-85.725
X9.366Y-93.345
X9.366Y-104.775
X9.366Y-112.395
X11.747Y-47.625
X11.747Y-55.245
X14.129Y-66.675
X14.129Y-74.295
X26.035Y-28.575
X26.035Y-36.195
X30.797Y-85.725
X30.797Y-93.345
X33.179Y-104.775
X33.179Y-112.395
X35.56Y-47.625
X35.56Y-55.245
X40.322Y-66.675
X40.322Y-74.295
X45.085Y-9.525
X45.085Y-17.145
X45.085Y-28.575
X45.085Y-36.195
X49.847Y-85.725
X49.847Y-93.345
X54.61Y-47.625
X54.61Y-55.245
X56.991Y-104.775
X56.991Y-112.395
X59.372Y-66.675
X59.372Y-74.295
X64.135Y-9.525
X64.135Y-17.145
X64.135Y-28.575
X64.135Y-36.195
X68.897Y-85.725
X68.897Y-93.345
X73.66Y-47.625
X73.66Y-55.245
X78.422Y-66.675
X78.422Y-74.295
X83.185Y-9.525
X83.185Y-17.145
X83.185Y-28.575
X83.185Y-36.195
X87.947Y-85.725
X87.947Y-93.345
X92.71Y-47.625
X92.71Y-55.245
X97.472Y-66.675
X97.472Y-74.295
X102.235Y-9.525
X102.235Y-17.145
X102.235Y-28.575
X102.235Y-36.195
X106.998Y-85.725
X106.998Y-93.345
X111.76Y-47.625
X111.76Y-55.245
X116.522Y-66.675
X116.522Y-74.295
X121.285Y-28.575
X121.285Y-36.195
X126.048Y-85.725
X126.048Y-93.345
X128.429Y-104.775
X128.429Y-112.395
X130.81Y-9.525
X130.81Y-17.145
X130.81Y-47.625
X130.81Y-55.245
X135.572Y-66.675
X135.572Y-74.295
X140.335Y-28.575
X140.335Y-36.195
X145.098Y-85.725
X145.098Y-93.345
X149.86Y-9.525
X149.86Y-17.145
X149.86Y-47.625
X149.86Y-55.245
X154.622Y-66.675
X154.622Y-74.295
X159.385Y-28.575
X159.385Y-36.195
X164.148Y-85.725
X164.148Y-93.345
X168.91Y-9.525
X168.91Y-17.145
X168.91Y-47.625
X168.91Y-55.245
X173.672Y-66.675
X173.672Y-74.295
X178.435Y-28.575
X178.435Y-36.195
X183.198Y-85.725
X183.198Y-93.345
X187.96Y-9.525
X187.96Y-17.145
X187.96Y-47.625
X187.96Y-55.245
X192.722Y-66.675
X192.722Y-74.295
X197.485Y-28.575
X197.485Y-36.195
X199.866Y-104.775
X199.866Y-112.395
X202.248Y-85.725
X202.248Y-93.345
X207.01Y-47.625
X207.01Y-55.245
X211.772Y-66.675
X211.772Y-74.295
X216.535Y-9.525
X216.535Y-17.145
X216.535Y-28.575
X216.535Y-36.195
X221.298Y-85.725
X221.298Y-93.345
X223.679Y-104.775
X223.679Y-112.395
X226.06Y-47.625
X226.06Y-55.245
X230.822Y-66.675
X230.822Y-74.295
X235.585Y-9.525
X235.585Y-17.145
X235.585Y-28.575
X235.585Y-36.195
X245.11Y-47.625
X245.11Y-55.245
X247.491Y-104.775
X247.491Y-112.395
X252.095Y-57.15
X252.095Y-64.77
X254.635Y-9.525
X254.635Y-17.145
X271.304Y-104.775
X271.304Y-112.395
X273.685Y-9.525
X273.685Y-17.145
X273.685Y-28.575
X273.685Y-36.195
X273.685Y-81.915
X273.685Y-89.535
X273.685Y-92.075
X273.685Y-99.695
X297.498Y-9.525
X297.498Y-17.145
X297.498Y-28.575
X297.498Y-36.195
X297.498Y-47.625
X297.498Y-55.245
X297.498Y-104.775
X297.498Y-112.395
X316.548Y-9.525
X316.548Y-17.145
X316.548Y-28.575
X316.548Y-36.195
X316.548Y-47.625
X316.548Y-55.245
X316.548Y-85.725
X316.548Y-93.345
X316.548Y-104.775
X316.548Y-112.395
X335.598Y-9.525
X335.598Y-17.145
X335.598Y-28.575
X335.598Y-36.195
X335.598Y-47.625
X335.598Y-55.245
X335.598Y-104.775
X335.598Y-112.395
X340.36Y-104.775
X340.36Y-112.395
X359.41Y-28.575
X359.41Y-36.195
X359.41Y-47.625
X359.41Y-55.245
X359.41Y-66.675
X359.41Y-74.295
X359.41Y-85.725
X359.41Y-93.345
X378.46Y-28.575
X378.46Y-36.195
X378.46Y-47.625
X378.46Y-55.245
X378.46Y-66.675
X378.46Y-74.295
X378.46Y-85.725
X378.46Y-93.345
X378.46Y-104.775
X378.46Y-112.395
X382.905Y-61.595
X382.905Y-80.645
X382.905Y-99.695
X390.525Y-61.595
X390.525Y-80.645
X390.525Y-99.695
X393.7Y-24.13
X397.51Y-28.575
X397.51Y-36.195
X398.145Y-57.15
X398.145Y-64.77
X398.145Y-95.25
X398.145Y-102.87
X403.86Y-24.13
X406.4Y-24.13
X416.56Y-24.13
X416.56Y-28.575
X416.56Y-36.195
T2
X394.335Y-10.795
X394.335Y-13.335
X407.035Y-4.445
X407.035Y-19.685
X409.575Y-4.445
X409.575Y-19.685
X412.115Y-4.445
X412.115Y-19.685
X414.655Y-4.445
X414.655Y-9.525
X414.655Y-12.065
X414.655Y-14.605
X414.655Y-19.685
T3
X362.585Y-4.445
X362.585Y-19.685
X365.125Y-4.445
X365.125Y-19.685
X367.665Y-4.445
X367.665Y-6.985
X367.665Y-9.525
X367.665Y-12.065
X367.665Y-14.605
X367.665Y-17.145
X367.665Y-19.685
X370.205Y-4.445
X370.205Y-6.985
X370.205Y-9.525
X370.205Y-12.065
X370.205Y-14.605
X370.205Y-17.145
X370.205Y-19.685
X372.745Y-4.445
X372.745Y-19.685
X375.285Y-4.445
X375.285Y-19.685
X377.825Y-4.445
X377.825Y-19.685
X380.365Y-4.445
X380.365Y-19.685
X382.905Y-4.445
X382.905Y-19.685
X385.445Y-4.445
X385.445Y-19.685
X387.985Y-4.445
X387.985Y-19.685
X390.525Y-4.445
X390.525Y-19.685
X393.065Y-4.445
X393.065Y-17.145
X393.065Y-19.685
X395.605Y-4.445
X395.605Y-19.685
T4
X-6.35Y-12.065
X-6.35Y-31.115
X-3.969Y-88.265
X-3.969Y-107.315
X-1.587Y-50.165
X0.0Y-9.525
X0.0Y-28.575
X0.794Y-69.215
X2.381Y-85.725
X2.381Y-104.775
X4.763Y-47.625
X7.144Y-66.675
X12.7Y-31.115
X17.462Y-88.265
X19.05Y-28.575
X19.844Y-107.315
X22.225Y-50.165
X23.812Y-85.725
X26.194Y-104.775
X26.987Y-69.215
X28.575Y-47.625
X31.75Y-12.065
X31.75Y-31.115
X33.337Y-66.675
X36.512Y-88.265
X38.1Y-9.525
X38.1Y-28.575
X41.275Y-50.165
X42.862Y-85.725
X43.656Y-107.315
X46.038Y-69.215
X47.625Y-47.625
X50.006Y-104.775
X50.8Y-12.065
X50.8Y-31.115
X52.387Y-66.675
X55.562Y-88.265
X57.15Y-9.525
X57.15Y-28.575
X60.325Y-50.165
X61.912Y-85.725
X65.087Y-69.215
X66.675Y-47.625
X69.85Y-12.065
X69.85Y-31.115
X71.438Y-66.675
X74.612Y-88.265
X76.2Y-9.525
X76.2Y-28.575
X79.375Y-50.165
X80.962Y-85.725
X84.138Y-69.215
X85.725Y-47.625
X88.9Y-12.065
X88.9Y-31.115
X90.487Y-66.675
X93.662Y-88.265
X95.25Y-9.525
X95.25Y-28.575
X98.425Y-50.165
X100.012Y-85.725
X103.188Y-69.215
X104.775Y-47.625
X107.95Y-31.115
X109.538Y-66.675
X112.712Y-88.265
X114.3Y-28.575
X115.094Y-107.315
X117.475Y-12.065
X117.475Y-50.165
X119.062Y-85.725
X121.444Y-104.775
X122.238Y-69.215
X123.825Y-9.525
X123.825Y-47.625
X127.0Y-31.115
X128.588Y-66.675
X131.762Y-88.265
X133.35Y-28.575
X136.525Y-12.065
X136.525Y-50.165
X138.112Y-85.725
X141.288Y-69.215
X142.875Y-9.525
X142.875Y-47.625
X146.05Y-31.115
X147.638Y-66.675
X150.812Y-88.265
X152.4Y-28.575
X155.575Y-12.065
X155.575Y-50.165
X157.162Y-85.725
X160.338Y-69.215
X161.925Y-9.525
X161.925Y-47.625
X165.1Y-31.115
X166.688Y-66.675
X169.862Y-88.265
X171.45Y-28.575
X174.625Y-12.065
X174.625Y-50.165
X176.212Y-85.725
X179.388Y-69.215
X180.975Y-9.525
X180.975Y-47.625
X184.15Y-31.115
X185.738Y-66.675
X186.531Y-107.315
X188.912Y-88.265
X190.5Y-28.575
X192.881Y-104.775
X193.675Y-50.165
X195.262Y-85.725
X198.438Y-69.215
X200.025Y-47.625
X203.2Y-12.065
X203.2Y-31.115
X204.788Y-66.675
X207.962Y-88.265
X209.55Y-9.525
X209.55Y-28.575
X210.344Y-107.315
X212.725Y-50.165
X214.312Y-85.725
X216.694Y-104.775
X217.488Y-69.215
X219.075Y-47.625
X222.25Y-12.065
X222.25Y-31.115
X223.838Y-66.675
X228.6Y-9.525
X228.6Y-28.575
X231.775Y-50.165
X234.156Y-107.315
X236.538Y-69.215
X238.125Y-47.625
X240.506Y-104.775
X241.3Y-12.065
X242.888Y-66.675
X243.681Y-88.265
X247.65Y-9.525
X250.031Y-85.725
X250.825Y-31.115
X257.175Y-28.575
X257.969Y-59.69
X257.969Y-107.315
X260.35Y-12.065
X264.319Y-57.15
X264.319Y-104.775
X266.7Y-9.525
X284.162Y-12.065
X284.162Y-31.115
X284.162Y-50.165
X284.162Y-107.315
X290.512Y-9.525
X290.512Y-28.575
X290.512Y-47.625
X290.512Y-104.775
X303.212Y-12.065
X303.212Y-31.115
X303.212Y-50.165
X303.212Y-88.265
X303.212Y-107.315
X309.562Y-9.525
X309.562Y-28.575
X309.562Y-47.625
X309.562Y-85.725
X309.562Y-104.775
X322.262Y-12.065
X322.262Y-31.115
X322.262Y-50.165
X322.262Y-107.315
X328.612Y-9.525
X328.612Y-28.575
X328.612Y-47.625
X328.612Y-104.775
X346.075Y-31.115
X346.075Y-50.165
X346.075Y-69.215
X346.075Y-88.265
X352.425Y-28.575
X352.425Y-47.625
X352.425Y-66.675
X352.425Y-85.725
X355.6Y-107.315
X361.95Y-104.775
X365.125Y-31.115
X365.125Y-50.165
X365.125Y-69.215
X365.125Y-88.265
X371.475Y-28.575
X371.475Y-47.625
X371.475Y-66.675
X371.475Y-85.725
X384.175Y-31.115
X384.175Y-50.165
X384.175Y-69.215
X384.175Y-88.265
X384.175Y-107.315
X390.525Y-28.575
X390.525Y-47.625
X390.525Y-66.675
X390.525Y-85.725
X390.525Y-104.775
X403.225Y-31.115
X403.225Y-59.69
X403.225Y-97.79
X409.575Y-28.575
X409.575Y-57.15
X409.575Y-95.25
T0
M30
