M48
; DRILL file {KiCad (6.0.1)} date Wed Jan 19 18:18:24 2022
; FORMAT={-:-/ absolute / metric / decimal}
; #@! TF.CreationDate,2022-01-19T18:18:24+01:00
; #@! TF.GenerationSoftware,Kicad,Pcbnew,(6.0.1)
; #@! TF.FileFunction,NonPlated,1,2,NPTH
FMAT,2
METRIC
; #@! TA.AperFunction,NonPlated,NPTH,ComponentDrill
T1C1.500
; #@! TA.AperFunction,NonPlated,NPTH,ComponentDrill
T2C1.700
; #@! TA.AperFunction,NonPlated,NPTH,ComponentDrill
T3C3.000
; #@! TA.AperFunction,NonPlated,NPTH,ComponentDrill
T4C3.050
; #@! TA.AperFunction,NonPlated,NPTH,ComponentDrill
T5C4.000
%
G90
G05
T2
X-7.62Y-14.605
X-7.62Y-33.655
X-5.239Y-90.805
X-5.239Y-109.855
X-2.857Y-52.705
X-0.476Y-71.755
X2.54Y-14.605
X2.54Y-33.655
X4.921Y-90.805
X4.921Y-109.855
X7.302Y-52.705
X9.684Y-71.755
X11.43Y-33.655
X16.192Y-90.805
X18.574Y-109.855
X20.955Y-52.705
X21.59Y-33.655
X25.717Y-71.755
X26.352Y-90.805
X28.734Y-109.855
X30.48Y-14.605
X30.48Y-33.655
X31.115Y-52.705
X35.242Y-90.805
X35.877Y-71.755
X40.005Y-52.705
X40.64Y-14.605
X40.64Y-33.655
X42.386Y-109.855
X44.767Y-71.755
X45.402Y-90.805
X49.53Y-14.605
X49.53Y-33.655
X50.165Y-52.705
X52.546Y-109.855
X54.292Y-90.805
X54.927Y-71.755
X59.055Y-52.705
X59.69Y-14.605
X59.69Y-33.655
X63.817Y-71.755
X64.453Y-90.805
X68.58Y-14.605
X68.58Y-33.655
X69.215Y-52.705
X73.343Y-90.805
X73.977Y-71.755
X78.105Y-52.705
X78.74Y-14.605
X78.74Y-33.655
X82.867Y-71.755
X83.502Y-90.805
X87.63Y-14.605
X87.63Y-33.655
X88.265Y-52.705
X92.392Y-90.805
X93.027Y-71.755
X97.155Y-52.705
X97.79Y-14.605
X97.79Y-33.655
X101.918Y-71.755
X102.552Y-90.805
X106.68Y-33.655
X107.315Y-52.705
X111.442Y-90.805
X112.078Y-71.755
X113.824Y-109.855
X116.205Y-14.605
X116.205Y-52.705
X116.84Y-33.655
X120.968Y-71.755
X121.602Y-90.805
X123.984Y-109.855
X125.73Y-33.655
X126.365Y-14.605
X126.365Y-52.705
X130.492Y-90.805
X131.128Y-71.755
X135.255Y-14.605
X135.255Y-52.705
X135.89Y-33.655
X140.018Y-71.755
X140.652Y-90.805
X144.78Y-33.655
X145.415Y-14.605
X145.415Y-52.705
X149.542Y-90.805
X150.178Y-71.755
X154.305Y-14.605
X154.305Y-52.705
X154.94Y-33.655
X159.068Y-71.755
X159.702Y-90.805
X163.83Y-33.655
X164.465Y-14.605
X164.465Y-52.705
X168.592Y-90.805
X169.228Y-71.755
X173.355Y-14.605
X173.355Y-52.705
X173.99Y-33.655
X178.118Y-71.755
X178.752Y-90.805
X182.88Y-33.655
X183.515Y-14.605
X183.515Y-52.705
X185.261Y-109.855
X187.642Y-90.805
X188.278Y-71.755
X192.405Y-52.705
X193.04Y-33.655
X195.421Y-109.855
X197.168Y-71.755
X197.802Y-90.805
X201.93Y-14.605
X201.93Y-33.655
X202.565Y-52.705
X206.692Y-90.805
X207.328Y-71.755
X209.074Y-109.855
X211.455Y-52.705
X212.09Y-14.605
X212.09Y-33.655
X216.218Y-71.755
X216.852Y-90.805
X219.234Y-109.855
X220.98Y-14.605
X220.98Y-33.655
X221.615Y-52.705
X226.378Y-71.755
X230.505Y-52.705
X231.14Y-14.605
X231.14Y-33.655
X232.886Y-109.855
X235.268Y-71.755
X240.03Y-14.605
X240.665Y-52.705
X242.411Y-90.805
X243.046Y-109.855
X245.428Y-71.755
X249.555Y-33.655
X250.19Y-14.605
X252.571Y-90.805
X256.699Y-62.23
X256.699Y-109.855
X259.08Y-14.605
X259.715Y-33.655
X266.859Y-62.23
X266.859Y-109.855
X269.24Y-14.605
X282.892Y-14.605
X282.892Y-33.655
X282.892Y-52.705
X282.892Y-109.855
X293.052Y-14.605
X293.052Y-33.655
X293.052Y-52.705
X293.052Y-109.855
X301.942Y-14.605
X301.942Y-33.655
X301.942Y-52.705
X301.942Y-90.805
X301.942Y-109.855
X312.102Y-14.605
X312.102Y-33.655
X312.102Y-52.705
X312.102Y-90.805
X312.102Y-109.855
X320.992Y-14.605
X320.992Y-33.655
X320.992Y-52.705
X320.992Y-109.855
X331.152Y-14.605
X331.152Y-33.655
X331.152Y-52.705
X331.152Y-109.855
X344.805Y-33.655
X344.805Y-52.705
X344.805Y-71.755
X344.805Y-90.805
X354.33Y-109.855
X354.965Y-33.655
X354.965Y-52.705
X354.965Y-71.755
X354.965Y-90.805
X363.855Y-33.655
X363.855Y-52.705
X363.855Y-71.755
X363.855Y-90.805
X364.49Y-109.855
X374.015Y-33.655
X374.015Y-52.705
X374.015Y-71.755
X374.015Y-90.805
X382.905Y-33.655
X382.905Y-52.705
X382.905Y-71.755
X382.905Y-90.805
X382.905Y-109.855
X393.065Y-33.655
X393.065Y-52.705
X393.065Y-71.755
X393.065Y-90.805
X393.065Y-109.855
X401.955Y-33.655
X401.955Y-62.23
X401.955Y-100.33
X412.115Y-33.655
X412.115Y-62.23
X412.115Y-100.33
T3
X-11.557Y-4.0
X-11.557Y-61.885
X-11.557Y-119.5
X73.685Y-61.885
X83.275Y-4.0
X83.735Y-108.725
X99.605Y-108.725
X107.035Y-4.0
X111.745Y-61.885
X178.455Y-108.725
X187.935Y-61.885
X193.695Y-4.0
X216.565Y-4.0
X226.055Y-61.885
X226.145Y-119.5
X297.345Y-119.5
X297.385Y-4.0
X297.495Y-61.885
X316.545Y-61.885
X316.655Y-119.5
X342.695Y-3.975
X342.755Y-14.475
X378.525Y-61.885
X400.685Y-4.0
X408.965Y-14.475
X416.179Y-119.5
T4
X68.904Y-102.855
X168.904Y-102.855
X235.591Y-83.805
X242.735Y-26.655
X254.779Y-50.33
X254.779Y-74.13
X259.391Y-83.805
X266.535Y-26.655
X347.51Y-102.855
X371.31Y-102.855
X400.035Y-50.33
X400.035Y-74.13
X400.035Y-88.43
X400.035Y-112.23
T5
X-2.54Y-14.605
X-2.54Y-33.655
X-0.159Y-90.805
X-0.159Y-109.855
X2.222Y-52.705
X4.604Y-71.755
X16.51Y-33.655
X21.272Y-90.805
X23.654Y-109.855
X26.035Y-52.705
X30.797Y-71.755
X35.56Y-14.605
X35.56Y-33.655
X40.322Y-90.805
X45.085Y-52.705
X47.466Y-109.855
X49.847Y-71.755
X54.61Y-14.605
X54.61Y-33.655
X59.372Y-90.805
X64.135Y-52.705
X68.897Y-71.755
X68.904Y-118.095
X73.66Y-14.605
X73.66Y-33.655
X78.422Y-90.805
X83.185Y-52.705
X87.947Y-71.755
X92.71Y-14.605
X92.71Y-33.655
X97.472Y-90.805
X102.235Y-52.705
X106.998Y-71.755
X111.76Y-33.655
X116.522Y-90.805
X118.904Y-109.855
X121.285Y-14.605
X121.285Y-52.705
X126.048Y-71.755
X130.81Y-33.655
X135.572Y-90.805
X140.335Y-14.605
X140.335Y-52.705
X145.098Y-71.755
X149.86Y-33.655
X154.622Y-90.805
X159.385Y-14.605
X159.385Y-52.705
X164.148Y-71.755
X168.904Y-118.095
X168.91Y-33.655
X173.672Y-90.805
X178.435Y-14.605
X178.435Y-52.705
X183.198Y-71.755
X187.96Y-33.655
X190.341Y-109.855
X192.722Y-90.805
X197.485Y-52.705
X202.248Y-71.755
X207.01Y-14.605
X207.01Y-33.655
X211.772Y-90.805
X214.154Y-109.855
X216.535Y-52.705
X221.298Y-71.755
X226.06Y-14.605
X226.06Y-33.655
X235.585Y-52.705
X235.591Y-99.045
X237.966Y-109.855
X240.348Y-71.755
X242.735Y-41.895
X245.11Y-14.605
X247.491Y-90.805
X254.635Y-33.655
X259.391Y-99.045
X261.779Y-62.23
X261.779Y-109.855
X264.16Y-14.605
X266.535Y-41.895
X270.019Y-50.33
X270.019Y-74.13
X287.972Y-14.605
X287.972Y-33.655
X287.972Y-52.705
X287.972Y-109.855
X307.022Y-14.605
X307.022Y-33.655
X307.022Y-52.705
X307.022Y-90.805
X307.022Y-109.855
X326.072Y-14.605
X326.072Y-33.655
X326.072Y-52.705
X326.072Y-109.855
X347.51Y-118.095
X349.885Y-33.655
X349.885Y-52.705
X349.885Y-71.755
X349.885Y-90.805
X359.41Y-109.855
X368.935Y-33.655
X368.935Y-52.705
X368.935Y-71.755
X368.935Y-90.805
X371.31Y-118.095
X387.985Y-33.655
X387.985Y-52.705
X387.985Y-71.755
X387.985Y-90.805
X387.985Y-109.855
X407.035Y-33.655
X407.035Y-62.23
X407.035Y-100.33
X415.275Y-50.33
X415.275Y-74.13
X415.275Y-88.43
X415.275Y-112.23
T1
X347.245Y-8.965G85X347.245Y-9.965
G05
X353.745Y-8.965G85X353.745Y-9.965
G05
T0
M30
